<svg width="410" height="251" fill="none" xmlns="http://www.w3.org/2000/svg"><g clip-path="url(#clip0)" stroke="#EFEFEF" stroke-width="2" stroke-linecap="round" stroke-linejoin="round"><path d="M1 234.384c9.465-.231 33.103 1.939 51.94 12.465 23.546 13.158 37.397-12.465 62.328-12.465 24.931 0 38.089 14.543 48.477 14.543 10.388 0 32.549-19.391 54.018-14.543 21.468 4.847 35.319 14.543 49.17 14.543 13.85 0 30.471-18.006 54.017-14.543 23.546 3.462 34.627 14.543 48.478 14.543 13.85 0 35.319-17.314 52.632-14.543 17.313 2.77 34.627 14.543 42.245 14.543H474"/><path d="M1 220.618c9.465-.23 33.103 1.94 51.94 12.466 23.546 13.158 37.397-12.466 62.328-12.466 24.931 0 38.089 14.544 48.477 14.544 10.388 0 32.549-19.391 54.018-14.544 21.468 4.848 35.319 14.544 49.17 14.544 13.85 0 30.471-18.006 54.017-14.544 23.546 3.463 34.627 14.544 48.478 14.544 13.85 0 35.319-17.314 52.632-14.544 17.313 2.771 34.627 14.544 42.245 14.544H474"/><path d="M1 206.768c9.465-.231 33.103 1.939 51.94 12.465 23.546 13.159 37.397-12.465 62.328-12.465 24.931 0 38.089 14.543 48.477 14.543 10.388 0 32.549-19.391 54.018-14.543 21.468 4.848 35.319 14.543 49.17 14.543 13.85 0 30.471-18.006 54.017-14.543 23.546 3.462 34.627 14.543 48.478 14.543 13.85 0 35.319-17.313 52.632-14.543 17.313 2.77 34.627 14.543 42.245 14.543H474"/><path d="M1 194.302c9.465-.231 33.103 1.939 51.94 12.466 23.546 13.158 37.397-12.466 62.328-12.466 24.931 0 38.089 14.543 48.477 14.543 10.388 0 32.549-19.391 54.018-14.543 21.468 4.848 35.319 14.543 49.17 14.543 13.85 0 30.471-18.006 54.017-14.543 23.546 3.463 34.627 14.543 48.478 14.543 13.85 0 35.319-17.313 52.632-14.543 17.313 2.77 34.627 14.543 42.245 14.543H474"/><path d="M1 181.837c9.465-.231 33.103 1.939 51.94 12.465 23.546 13.158 37.397-12.465 62.328-12.465 24.931 0 38.089 14.543 48.477 14.543 10.388 0 32.549-19.391 54.018-14.543 21.468 4.847 35.319 14.543 49.17 14.543 13.85 0 30.471-18.006 54.017-14.543 23.546 3.462 34.627 14.543 48.478 14.543 13.85 0 35.319-17.314 52.632-14.543 17.313 2.77 34.627 14.543 42.245 14.543H474"/><path d="M1 167.986c9.465-.231 33.103 1.939 51.94 12.466 23.546 13.158 37.397-12.466 62.328-12.466 24.931 0 38.089 14.543 48.477 14.543 10.388 0 32.549-19.391 54.018-14.543 21.468 4.848 35.319 14.543 49.17 14.543 13.85 0 30.471-18.006 54.017-14.543 23.546 3.463 34.627 14.543 48.478 14.543 13.85 0 35.319-17.313 52.632-14.543 17.313 2.77 34.627 14.543 42.245 14.543H474"/><path d="M1 156.905c9.465-.23 33.103 1.939 51.94 12.466 23.546 13.158 37.397-12.466 62.328-12.466 24.931 0 38.089 14.544 48.477 14.544 10.388 0 32.549-19.391 54.018-14.544 21.468 4.848 35.319 14.544 49.17 14.544 13.85 0 30.471-18.006 54.017-14.544 23.546 3.463 34.627 14.544 48.478 14.544 13.85 0 35.319-17.314 52.632-14.544 17.313 2.771 34.627 14.544 42.245 14.544H474"/><path d="M1 143.055c9.465-.231 33.103 1.939 51.94 12.465 23.546 13.158 37.397-12.465 62.328-12.465 24.931 0 38.089 14.543 48.477 14.543 10.388 0 32.549-19.391 54.018-14.543 21.468 4.847 35.319 14.543 49.17 14.543 13.85 0 30.471-18.006 54.017-14.543 23.546 3.462 34.627 14.543 48.478 14.543 13.85 0 35.319-17.314 52.632-14.543 17.313 2.77 34.627 14.543 42.245 14.543H474"/><path d="M1 131.974c9.465-.231 33.103 1.939 51.94 12.466 23.546 13.158 37.397-12.466 62.328-12.466 24.931 0 38.089 14.544 48.477 14.544 10.388 0 32.549-19.391 54.018-14.544 21.468 4.848 35.319 14.544 49.17 14.544 13.85 0 30.471-18.006 54.017-14.544 23.546 3.463 34.627 14.544 48.478 14.544 13.85 0 35.319-17.314 52.632-14.544 17.313 2.771 34.627 14.544 42.245 14.544H474"/><path d="M1 118.123c9.465-.23 33.103 1.94 51.94 12.466 23.546 13.158 37.397-12.466 62.328-12.466 24.931 0 38.089 14.544 48.477 14.544 10.388 0 32.549-19.391 54.018-14.544 21.468 4.848 35.319 14.544 49.17 14.544 13.85 0 30.471-18.006 54.017-14.544 23.546 3.463 34.627 14.544 48.478 14.544 13.85 0 35.319-17.314 52.632-14.544 17.313 2.771 34.627 14.544 42.245 14.544H474"/><path d="M1 105.658c9.465-.231 33.103 1.939 51.94 12.466 23.546 13.158 37.397-12.466 62.328-12.466 24.931 0 38.089 14.543 48.477 14.543 10.388 0 32.549-19.391 54.018-14.543 21.468 4.848 35.319 14.543 49.17 14.543 13.85 0 30.471-18.006 54.017-14.543 23.546 3.463 34.627 14.543 48.478 14.543 13.85 0 35.319-17.313 52.632-14.543 17.313 2.77 34.627 14.543 42.245 14.543H474"/><path d="M1 91.807c9.465-.23 33.103 1.94 51.94 12.466 23.546 13.158 37.397-12.466 62.328-12.466 24.931 0 38.089 14.544 48.477 14.544 10.388 0 32.549-19.391 54.018-14.544 21.468 4.848 35.319 14.544 49.17 14.544 13.85 0 30.471-18.006 54.017-14.544 23.546 3.463 34.627 14.544 48.478 14.544 13.85 0 35.319-17.314 52.632-14.544 17.313 2.77 34.627 14.544 42.245 14.544H474"/><path d="M1 79.342c9.465-.231 33.103 1.939 51.94 12.465 23.546 13.158 37.397-12.465 62.328-12.465 24.931 0 38.089 14.543 48.477 14.543 10.388 0 32.549-19.391 54.018-14.543 21.468 4.847 35.319 14.543 49.17 14.543 13.85 0 30.471-18.006 54.017-14.543 23.546 3.463 34.627 14.543 48.478 14.543 13.85 0 35.319-17.313 52.632-14.543 17.313 2.77 34.627 14.543 42.245 14.543H474"/><path d="M1 66.317c9.465-.231 33.103 1.939 51.94 12.465 23.546 13.158 37.397-12.465 62.328-12.465 24.931 0 38.089 14.543 48.477 14.543 10.388 0 32.549-19.391 54.018-14.543 21.468 4.847 35.319 14.543 49.17 14.543 13.85 0 30.471-18.006 54.017-14.543 23.546 3.462 34.627 14.543 48.478 14.543 13.85 0 35.319-17.314 52.632-14.543 17.313 2.77 34.627 14.543 42.245 14.543H474"/><path d="M1 54.41c9.465-.23 33.103 1.94 51.94 12.466 23.546 13.158 37.397-12.465 62.328-12.465 24.931 0 38.089 14.543 48.477 14.543 10.388 0 32.549-19.391 54.018-14.543 21.468 4.847 35.319 14.543 49.17 14.543 13.85 0 30.471-18.006 54.017-14.543 23.546 3.462 34.627 14.543 48.478 14.543 13.85 0 35.319-17.314 52.632-14.543 17.313 2.77 34.627 14.543 42.245 14.543H474"/><path d="M1 40.56c9.465-.231 33.103 1.939 51.94 12.465C76.486 66.183 90.337 40.56 115.268 40.56c24.931 0 38.089 14.543 48.477 14.543 10.388 0 32.549-19.391 54.018-14.543 21.468 4.847 35.319 14.543 49.17 14.543 13.85 0 30.471-18.006 54.017-14.543 23.546 3.462 34.627 14.543 48.478 14.543 13.85 0 35.319-17.313 52.632-14.543 17.313 2.77 34.627 14.543 42.245 14.543H474"/><path d="M1 28.094c9.465-.23 33.103 1.94 51.94 12.466 23.546 13.158 37.397-12.466 62.328-12.466 24.931 0 38.089 14.543 48.477 14.543 10.388 0 32.549-19.39 54.018-14.543 21.468 4.848 35.319 14.543 49.17 14.543 13.85 0 30.471-18.006 54.017-14.543 23.546 3.463 34.627 14.543 48.478 14.543 13.85 0 35.319-17.313 52.632-14.543 17.313 2.77 34.627 14.543 42.245 14.543H474"/><path d="M1 15.629c9.465-.231 33.103 1.939 51.94 12.465C76.486 41.252 90.337 15.63 115.268 15.63c24.931 0 38.089 14.543 48.477 14.543 10.388 0 32.549-19.391 54.018-14.543 21.468 4.847 35.319 14.543 49.17 14.543 13.85 0 30.471-18.006 54.017-14.543 23.546 3.462 34.627 14.543 48.478 14.543 13.85 0 35.319-17.314 52.632-14.543 17.313 2.77 34.627 14.543 42.245 14.543H474"/><path d="M1 1.778c9.465-.23 33.103 1.94 51.94 12.466C76.486 27.402 90.337 1.778 115.268 1.778c24.931 0 38.089 14.543 48.477 14.543 10.388 0 32.549-19.39 54.018-14.543 21.468 4.848 35.319 14.543 49.17 14.543 13.85 0 30.471-18.006 54.017-14.543 23.546 3.463 34.627 14.543 48.478 14.543 13.85 0 35.319-17.313 52.632-14.543 17.313 2.77 34.627 14.543 42.245 14.543H474"/></g><defs><clipPath id="clip0"><path fill="#fff" d="M0 0h410v251H0z"/></clipPath></defs></svg>