<svg width="58" height="38" fill="none" xmlns="http://www.w3.org/2000/svg"><ellipse cx="12.88" cy="25.228" rx="12.88" ry="12.772" fill="#fff"/><path d="M14.073 0C9.833 5.897 1.283 18.182 1 20.144c1.354 1.985 4.452 6.025 6.006 6.306 1.555.28 10.423-2.453 14.663-3.854-.354-1.868-1.413-6.096-2.827-8.057C17.43 12.577 22.73 4.029 25.555 0H14.073z" fill="#fff"/><ellipse cx="45.076" cy="25.228" rx="12.88" ry="12.772" fill="#fff"/><path d="M46.518 0c-4.24 5.897-12.79 18.182-13.073 20.144 1.354 1.985 4.452 6.025 6.006 6.306 1.555.28 10.423-2.453 14.663-3.854-.353-1.868-1.413-6.096-2.827-8.057C49.874 12.577 55.174 4.029 58 0H46.518z" fill="#fff"/></svg>