<svg width="31" height="31" viewBox="0 0 31 31" fill="none" xmlns="http://www.w3.org/2000/svg">
<g clip-path="url(#clip0)">
<path d="M7.568 0C6.5274 0 5.67599 0.851401 5.67599 1.892V28.38C5.67599 29.4206 6.5274 30.272 7.568 30.272H26.488C27.5286 30.272 28.38 29.4206 28.38 28.38V7.56801L20.812 0H7.568Z" fill="#E2E5E7"/>
<path d="M22.704 7.56801H28.3801L20.812 0V5.67601C20.812 6.71661 21.6634 7.56801 22.704 7.56801Z" fill="#B0B7BD"/>
<path d="M28.38 13.244L22.704 7.56803H28.38V13.244Z" fill="#CAD1D8"/>
<path d="M24.596 24.596C24.596 25.1163 24.1703 25.542 23.65 25.542H2.83797C2.31767 25.542 1.89197 25.1163 1.89197 24.596V15.136C1.89197 14.6157 2.31767 14.19 2.83797 14.19H23.65C24.1703 14.19 24.596 14.6157 24.596 15.136V24.596Z" fill="#F24F4B"/>
<path d="M6.01556 17.9239C6.01556 17.6741 6.21233 17.4017 6.52924 17.4017H8.27651C9.26035 17.4017 10.1458 18.0601 10.1458 19.3221C10.1458 20.5178 9.26035 21.1838 8.27651 21.1838H7.0136V22.1828C7.0136 22.5158 6.80169 22.704 6.52924 22.704C6.2795 22.704 6.01556 22.5158 6.01556 22.1828V17.9239V17.9239ZM7.0136 18.3543V20.2387H8.27651C8.78356 20.2387 9.18467 19.7913 9.18467 19.3221C9.18467 18.7933 8.78356 18.3543 8.27651 18.3543H7.0136Z" fill="white"/>
<path d="M11.6273 22.704C11.3776 22.704 11.1051 22.5678 11.1051 22.2358V17.939C11.1051 17.6675 11.3776 17.4698 11.6273 17.4698H13.3594C16.8161 17.4698 16.7404 22.704 13.4275 22.704H11.6273V22.704ZM12.1041 18.3931V21.7817H13.3594C15.4018 21.7817 15.4927 18.3931 13.3594 18.3931H12.1041V18.3931Z" fill="white"/>
<path d="M17.9664 18.4536V19.656H19.8953C20.1677 19.656 20.4402 19.9284 20.4402 20.1924C20.4402 20.4421 20.1677 20.6465 19.8953 20.6465H17.9664V22.2348C17.9664 22.4997 17.7781 22.7031 17.5133 22.7031C17.1803 22.7031 16.9769 22.4997 16.9769 22.2348V17.9381C16.9769 17.6666 17.1812 17.4688 17.5133 17.4688H20.1687C20.5017 17.4688 20.6984 17.6666 20.6984 17.9381C20.6984 18.1802 20.5017 18.4527 20.1687 18.4527H17.9664V18.4536Z" fill="white"/>
<path d="M23.65 25.542H5.67599V26.488H23.65C24.1703 26.488 24.596 26.0623 24.596 25.542V24.596C24.596 25.1163 24.1703 25.542 23.65 25.542Z" fill="#CAD1D8"/>
</g>
<defs>
<clipPath id="clip0">
<rect width="30.272" height="30.272" fill="white"/>
</clipPath>
</defs>
</svg>
