<svg width="410" height="251" viewBox="0 0 410 251" fill="none" xmlns="http://www.w3.org/2000/svg">
<g clip-path="url(#clip0)">
<path d="M1 234.384C10.4646 234.153 34.1031 236.323 52.94 246.849C76.4861 260.007 90.3368 234.384 115.268 234.384C140.199 234.384 153.357 248.927 163.745 248.927C174.133 248.927 196.294 229.536 217.763 234.384C239.231 239.231 253.082 248.927 266.933 248.927C280.783 248.927 297.404 230.921 320.95 234.384C344.496 237.846 355.577 248.927 369.428 248.927C383.278 248.927 404.747 231.613 422.06 234.384C439.373 237.154 456.687 248.927 464.305 248.927C470.399 248.927 473.307 248.927 474 248.927" stroke="#EFEFEF" stroke-width="2" stroke-linecap="round" stroke-linejoin="round"/>
<path d="M1 220.618C10.4646 220.388 34.1031 222.558 52.94 233.084C76.4861 246.242 90.3368 220.618 115.268 220.618C140.199 220.618 153.357 235.162 163.745 235.162C174.133 235.162 196.294 215.771 217.763 220.618C239.231 225.466 253.082 235.162 266.933 235.162C280.783 235.162 297.404 217.156 320.95 220.618C344.496 224.081 355.577 235.162 369.428 235.162C383.278 235.162 404.747 217.848 422.06 220.618C439.373 223.389 456.687 235.162 464.305 235.162C470.399 235.162 473.307 235.162 474 235.162" stroke="#EFEFEF" stroke-width="2" stroke-linecap="round" stroke-linejoin="round"/>
<path d="M1 206.768C10.4646 206.537 34.1031 208.707 52.94 219.233C76.4861 232.392 90.3368 206.768 115.268 206.768C140.199 206.768 153.357 221.311 163.745 221.311C174.133 221.311 196.294 201.92 217.763 206.768C239.231 211.616 253.082 221.311 266.933 221.311C280.783 221.311 297.404 203.305 320.95 206.768C344.496 210.23 355.577 221.311 369.428 221.311C383.278 221.311 404.747 203.998 422.06 206.768C439.373 209.538 456.687 221.311 464.305 221.311C470.399 221.311 473.307 221.311 474 221.311" stroke="#EFEFEF" stroke-width="2" stroke-linecap="round" stroke-linejoin="round"/>
<path d="M1 194.302C10.4646 194.071 34.1031 196.241 52.94 206.768C76.4861 219.926 90.3368 194.302 115.268 194.302C140.199 194.302 153.357 208.845 163.745 208.845C174.133 208.845 196.294 189.454 217.763 194.302C239.231 199.15 253.082 208.845 266.933 208.845C280.783 208.845 297.404 190.839 320.95 194.302C344.496 197.765 355.577 208.845 369.428 208.845C383.278 208.845 404.747 191.532 422.06 194.302C439.373 197.072 456.687 208.845 464.305 208.845C470.399 208.845 473.307 208.845 474 208.845" stroke="#EFEFEF" stroke-width="2" stroke-linecap="round" stroke-linejoin="round"/>
<path d="M1 181.837C10.4646 181.606 34.1031 183.776 52.94 194.302C76.4861 207.46 90.3368 181.837 115.268 181.837C140.199 181.837 153.357 196.38 163.745 196.38C174.133 196.38 196.294 176.989 217.763 181.837C239.231 186.684 253.082 196.38 266.933 196.38C280.783 196.38 297.404 178.374 320.95 181.837C344.496 185.299 355.577 196.38 369.428 196.38C383.278 196.38 404.747 179.066 422.06 181.837C439.373 184.607 456.687 196.38 464.305 196.38C470.399 196.38 473.307 196.38 474 196.38" stroke="#EFEFEF" stroke-width="2" stroke-linecap="round" stroke-linejoin="round"/>
<path d="M1 167.986C10.4646 167.755 34.1031 169.925 52.94 180.452C76.4861 193.61 90.3368 167.986 115.268 167.986C140.199 167.986 153.357 182.529 163.745 182.529C174.133 182.529 196.294 163.138 217.763 167.986C239.231 172.834 253.082 182.529 266.933 182.529C280.783 182.529 297.404 164.523 320.95 167.986C344.496 171.449 355.577 182.529 369.428 182.529C383.278 182.529 404.747 165.216 422.06 167.986C439.373 170.756 456.687 182.529 464.305 182.529C470.399 182.529 473.307 182.529 474 182.529" stroke="#EFEFEF" stroke-width="2" stroke-linecap="round" stroke-linejoin="round"/>
<path d="M1 156.905C10.4646 156.675 34.1031 158.844 52.94 169.371C76.4861 182.529 90.3368 156.905 115.268 156.905C140.199 156.905 153.357 171.449 163.745 171.449C174.133 171.449 196.294 152.058 217.763 156.905C239.231 161.753 253.082 171.449 266.933 171.449C280.783 171.449 297.404 153.443 320.95 156.905C344.496 160.368 355.577 171.449 369.428 171.449C383.278 171.449 404.747 154.135 422.06 156.905C439.373 159.676 456.687 171.449 464.305 171.449C470.399 171.449 473.307 171.449 474 171.449" stroke="#EFEFEF" stroke-width="2" stroke-linecap="round" stroke-linejoin="round"/>
<path d="M1 143.055C10.4646 142.824 34.1031 144.994 52.94 155.52C76.4861 168.678 90.3368 143.055 115.268 143.055C140.199 143.055 153.357 157.598 163.745 157.598C174.133 157.598 196.294 138.207 217.763 143.055C239.231 147.902 253.082 157.598 266.933 157.598C280.783 157.598 297.404 139.592 320.95 143.055C344.496 146.517 355.577 157.598 369.428 157.598C383.278 157.598 404.747 140.284 422.06 143.055C439.373 145.825 456.687 157.598 464.305 157.598C470.399 157.598 473.307 157.598 474 157.598" stroke="#EFEFEF" stroke-width="2" stroke-linecap="round" stroke-linejoin="round"/>
<path d="M1 131.974C10.4646 131.743 34.1031 133.913 52.94 144.44C76.4861 157.598 90.3368 131.974 115.268 131.974C140.199 131.974 153.357 146.518 163.745 146.518C174.133 146.518 196.294 127.127 217.763 131.974C239.231 136.822 253.082 146.518 266.933 146.518C280.783 146.518 297.404 128.512 320.95 131.974C344.496 135.437 355.577 146.518 369.428 146.518C383.278 146.518 404.747 129.204 422.06 131.974C439.373 134.745 456.687 146.518 464.305 146.518C470.399 146.518 473.307 146.518 474 146.518" stroke="#EFEFEF" stroke-width="2" stroke-linecap="round" stroke-linejoin="round"/>
<path d="M1 118.123C10.4646 117.893 34.1031 120.063 52.94 130.589C76.4861 143.747 90.3368 118.123 115.268 118.123C140.199 118.123 153.357 132.667 163.745 132.667C174.133 132.667 196.294 113.276 217.763 118.123C239.231 122.971 253.082 132.667 266.933 132.667C280.783 132.667 297.404 114.661 320.95 118.123C344.496 121.586 355.577 132.667 369.428 132.667C383.278 132.667 404.747 115.353 422.06 118.123C439.373 120.894 456.687 132.667 464.305 132.667C470.399 132.667 473.307 132.667 474 132.667" stroke="#EFEFEF" stroke-width="2" stroke-linecap="round" stroke-linejoin="round"/>
<path d="M1 105.658C10.4646 105.427 34.1031 107.597 52.94 118.124C76.4861 131.282 90.3368 105.658 115.268 105.658C140.199 105.658 153.357 120.201 163.745 120.201C174.133 120.201 196.294 100.81 217.763 105.658C239.231 110.506 253.082 120.201 266.933 120.201C280.783 120.201 297.404 102.195 320.95 105.658C344.496 109.121 355.577 120.201 369.428 120.201C383.278 120.201 404.747 102.888 422.06 105.658C439.373 108.428 456.687 120.201 464.305 120.201C470.399 120.201 473.307 120.201 474 120.201" stroke="#EFEFEF" stroke-width="2" stroke-linecap="round" stroke-linejoin="round"/>
<path d="M1 91.8073C10.4646 91.5765 34.1031 93.7464 52.94 104.273C76.4861 117.431 90.3368 91.8073 115.268 91.8073C140.199 91.8073 153.357 106.351 163.745 106.351C174.133 106.351 196.294 86.9596 217.763 91.8073C239.231 96.6551 253.082 106.351 266.933 106.351C280.783 106.351 297.404 88.3446 320.95 91.8073C344.496 95.27 355.577 106.351 369.428 106.351C383.278 106.351 404.747 89.0372 422.06 91.8073C439.373 94.5775 456.687 106.351 464.305 106.351C470.399 106.351 473.307 106.351 474 106.351" stroke="#EFEFEF" stroke-width="2" stroke-linecap="round" stroke-linejoin="round"/>
<path d="M1 79.3418C10.4646 79.1109 34.1031 81.2808 52.94 91.8074C76.4861 104.965 90.3368 79.3418 115.268 79.3418C140.199 79.3418 153.357 93.885 163.745 93.885C174.133 93.885 196.294 74.494 217.763 79.3418C239.231 84.1895 253.082 93.885 266.933 93.885C280.783 93.885 297.404 75.879 320.95 79.3418C344.496 82.8045 355.577 93.885 369.428 93.885C383.278 93.885 404.747 76.5716 422.06 79.3418C439.373 82.1119 456.687 93.885 464.305 93.885C470.399 93.885 473.307 93.885 474 93.885" stroke="#EFEFEF" stroke-width="2" stroke-linecap="round" stroke-linejoin="round"/>
<path d="M1 66.3166C10.4646 66.0858 34.1031 68.2557 52.94 78.7822C76.4861 91.9403 90.3368 66.3166 115.268 66.3166C140.199 66.3166 153.357 80.8598 163.745 80.8598C174.133 80.8598 196.294 61.4689 217.763 66.3166C239.231 71.1644 253.082 80.8598 266.933 80.8598C280.783 80.8598 297.404 62.8539 320.95 66.3166C344.496 69.7793 355.577 80.8598 369.428 80.8598C383.278 80.8598 404.747 63.5464 422.06 66.3166C439.373 69.0868 456.687 80.8598 464.305 80.8598C470.399 80.8598 473.307 80.8598 474 80.8598" stroke="#EFEFEF" stroke-width="2" stroke-linecap="round" stroke-linejoin="round"/>
<path d="M1 54.4106C10.4646 54.1798 34.1031 56.3497 52.94 66.8762C76.4861 80.0343 90.3368 54.4106 115.268 54.4106C140.199 54.4106 153.357 68.9538 163.745 68.9538C174.133 68.9538 196.294 49.5629 217.763 54.4106C239.231 59.2584 253.082 68.9538 266.933 68.9538C280.783 68.9538 297.404 50.9479 320.95 54.4106C344.496 57.8733 355.577 68.9538 369.428 68.9538C383.278 68.9538 404.747 51.6404 422.06 54.4106C439.373 57.1808 456.687 68.9538 464.305 68.9538C470.399 68.9538 473.307 68.9538 474 68.9538" stroke="#EFEFEF" stroke-width="2" stroke-linecap="round" stroke-linejoin="round"/>
<path d="M1 40.5598C10.4646 40.3289 34.1031 42.4989 52.94 53.0254C76.4861 66.1835 90.3368 40.5598 115.268 40.5598C140.199 40.5598 153.357 55.103 163.745 55.103C174.133 55.103 196.294 35.712 217.763 40.5598C239.231 45.4075 253.082 55.103 266.933 55.103C280.783 55.103 297.404 37.0971 320.95 40.5598C344.496 44.0225 355.577 55.103 369.428 55.103C383.278 55.103 404.747 37.7896 422.06 40.5598C439.373 43.33 456.687 55.103 464.305 55.103C470.399 55.103 473.307 55.103 474 55.103" stroke="#EFEFEF" stroke-width="2" stroke-linecap="round" stroke-linejoin="round"/>
<path d="M1 28.0942C10.4646 27.8634 34.1031 30.0333 52.94 40.5598C76.4861 53.7179 90.3368 28.0942 115.268 28.0942C140.199 28.0942 153.357 42.6374 163.745 42.6374C174.133 42.6374 196.294 23.2464 217.763 28.0942C239.231 32.942 253.082 42.6374 266.933 42.6374C280.783 42.6374 297.404 24.6315 320.95 28.0942C344.496 31.5569 355.577 42.6374 369.428 42.6374C383.278 42.6374 404.747 25.324 422.06 28.0942C439.373 30.8644 456.687 42.6374 464.305 42.6374C470.399 42.6374 473.307 42.6374 474 42.6374" stroke="#EFEFEF" stroke-width="2" stroke-linecap="round" stroke-linejoin="round"/>
<path d="M1 15.6286C10.4646 15.3978 34.1031 17.5677 52.94 28.0942C76.4861 41.2523 90.3368 15.6286 115.268 15.6286C140.199 15.6286 153.357 30.1718 163.745 30.1718C174.133 30.1718 196.294 10.7809 217.763 15.6286C239.231 20.4764 253.082 30.1718 266.933 30.1718C280.783 30.1718 297.404 12.1659 320.95 15.6286C344.496 19.0913 355.577 30.1718 369.428 30.1718C383.278 30.1718 404.747 12.8584 422.06 15.6286C439.373 18.3988 456.687 30.1718 464.305 30.1718C470.399 30.1718 473.307 30.1718 474 30.1718" stroke="#EFEFEF" stroke-width="2" stroke-linecap="round" stroke-linejoin="round"/>
<path d="M1 1.77804C10.4646 1.54719 34.1031 3.71713 52.94 14.2436C76.4861 27.4018 90.3368 1.77804 115.268 1.77804C140.199 1.77804 153.357 16.3213 163.745 16.3213C174.133 16.3213 196.294 -3.06972 217.763 1.77804C239.231 6.62579 253.082 16.3213 266.933 16.3213C280.783 16.3213 297.404 -1.68468 320.95 1.77804C344.496 5.24075 355.577 16.3213 369.428 16.3213C383.278 16.3213 404.747 -0.992144 422.06 1.77804C439.373 4.54822 456.687 16.3213 464.305 16.3213C470.399 16.3213 473.307 16.3213 474 16.3213" stroke="#EFEFEF" stroke-width="2" stroke-linecap="round" stroke-linejoin="round"/>
</g>
<defs>
<clipPath id="clip0">
<rect width="410" height="251" fill="white"/>
</clipPath>
</defs>
</svg>
