<svg width="1920" height="340" viewBox="0 0 1920 340" fill="none" xmlns="http://www.w3.org/2000/svg">
<path d="M-168 316.962C-153.414 316.65 -116.985 319.588 -87.9557 333.839C-51.669 351.653 -30.3239 316.962 8.09735 316.962C46.5186 316.962 66.7965 336.652 82.8053 336.652C98.8142 336.652 132.966 310.399 166.051 316.962C199.136 323.525 220.481 336.652 241.827 336.652C263.172 336.652 288.786 312.275 325.073 316.962C361.359 321.65 378.435 336.652 399.781 336.652C421.126 336.652 454.211 313.212 480.892 316.962C507.573 320.713 534.255 336.652 545.995 336.652C555.387 336.652 559.869 336.652 560.936 336.652" stroke="#F4F4F4" stroke-width="2" stroke-linecap="round" stroke-linejoin="round"/>
<path d="M-168 298.327C-153.414 298.014 -116.985 300.952 -87.9557 315.203C-51.669 333.017 -30.3239 298.327 8.09735 298.327C46.5186 298.327 66.7965 318.016 82.8053 318.016C98.8142 318.016 132.966 291.764 166.051 298.327C199.136 304.89 220.481 318.016 241.827 318.016C263.172 318.016 288.786 293.639 325.073 298.327C361.359 303.015 378.435 318.016 399.781 318.016C421.126 318.016 454.211 294.576 480.892 298.327C507.573 302.077 534.255 318.016 545.995 318.016C555.387 318.016 559.869 318.016 560.936 318.016" stroke="#F4F4F4" stroke-width="2" stroke-linecap="round" stroke-linejoin="round"/>
<path d="M-168 279.575C-153.414 279.263 -116.985 282.2 -87.9557 296.451C-51.669 314.265 -30.3239 279.575 8.09735 279.575C46.5186 279.575 66.7965 299.264 82.8053 299.264C98.8142 299.264 132.966 273.012 166.051 279.575C199.136 286.138 220.481 299.264 241.827 299.264C263.172 299.264 288.786 274.887 325.073 279.575C361.359 284.263 378.435 299.264 399.781 299.264C421.126 299.264 454.211 275.825 480.892 279.575C507.574 283.325 534.255 299.264 545.995 299.264C555.387 299.264 559.869 299.264 560.936 299.264C582.281 299.264 607.896 274.888 644.182 279.576C680.469 284.263 697.545 299.265 718.89 299.265C740.236 299.265 773.32 275.825 800.002 279.576C826.683 283.326 853.365 299.265 865.104 299.265H880.046C901.391 299.265 927.005 274.888 963.292 279.576C999.579 284.263 1016.65 299.265 1038 299.265" stroke="#F4F4F4" stroke-width="2" stroke-linecap="round" stroke-linejoin="round"/>
<path d="M-168 262.699C-153.414 262.386 -116.985 265.324 -87.9557 279.575C-51.669 297.389 -30.3239 262.699 8.09735 262.699C46.5186 262.699 66.7965 282.388 82.8053 282.388C98.8142 282.388 132.966 256.136 166.051 262.699C199.136 269.262 220.481 282.388 241.827 282.388C263.172 282.388 288.786 258.011 325.073 262.699C361.359 267.387 378.435 282.388 399.781 282.388C421.126 282.388 454.211 258.948 480.892 262.699C507.574 266.449 534.255 282.388 545.995 282.388C555.387 282.388 559.869 282.388 560.936 282.388C582.281 282.388 607.896 258.011 644.182 262.699C680.469 267.387 697.545 282.388 718.89 282.388C740.236 282.388 773.32 258.949 800.002 262.699C826.683 266.449 853.365 282.388 865.104 282.388H880.046C901.391 282.388 927.005 258.011 963.292 262.699C999.579 267.387 1016.65 282.388 1038 282.388" stroke="#F4F4F4" stroke-width="2" stroke-linecap="round" stroke-linejoin="round"/>
<path d="M-168 245.823C-153.414 245.51 -116.985 248.448 -87.9557 262.699C-51.669 280.513 -30.3239 245.823 8.09735 245.823C46.5186 245.823 66.7965 265.512 82.8053 265.512C98.8142 265.512 132.966 239.26 166.051 245.823C199.136 252.386 220.481 265.512 241.827 265.512C263.172 265.512 288.786 241.135 325.073 245.823C361.359 250.511 378.435 265.512 399.781 265.512C421.126 265.512 454.211 242.072 480.892 245.823C507.574 249.573 534.255 265.512 545.995 265.512C555.387 265.512 559.869 265.512 560.936 265.512C582.281 265.512 607.896 241.135 644.182 245.823C680.469 250.511 697.545 265.512 718.89 265.512C740.236 265.512 773.32 242.072 800.002 245.823C826.683 249.573 853.365 265.512 865.104 265.512H880.046C901.391 265.512 927.005 241.135 963.292 245.823C999.579 250.511 1016.65 265.512 1038 265.512" stroke="#F4F4F4" stroke-width="2" stroke-linecap="round" stroke-linejoin="round"/>
<path d="M-168 227.071C-153.414 226.759 -116.985 229.696 -87.9557 243.947C-51.669 261.761 -30.3239 227.071 8.09735 227.071C46.5186 227.071 66.7965 246.76 82.8053 246.76C98.8142 246.76 132.966 220.508 166.051 227.071C199.136 233.634 220.481 246.76 241.827 246.76C263.172 246.76 288.786 222.383 325.073 227.071C361.359 231.759 378.435 246.76 399.781 246.76C421.126 246.76 454.211 223.321 480.892 227.071C507.574 230.821 534.255 246.76 545.995 246.76C555.387 246.76 559.869 246.76 560.936 246.76C582.281 246.76 607.896 222.383 644.182 227.071C680.469 231.759 697.545 246.76 718.89 246.76C740.236 246.76 773.32 223.321 800.002 227.071C826.683 230.821 853.365 246.76 865.104 246.76H880.046C901.391 246.76 927.005 222.383 963.292 227.071C999.579 231.759 1016.65 246.76 1038 246.76C1059.35 246.76 1084.96 222.383 1121.25 227.071C1157.53 231.759 1174.61 246.76 1195.95 246.76C1217.3 246.76 1250.38 223.321 1277.07 227.071C1303.75 230.821 1330.43 246.76 1342.17 246.76H1357.11C1378.45 246.76 1404.07 222.383 1440.36 227.071C1476.64 231.759 1493.72 246.76 1515.06 246.76C1536.41 246.76 1569.49 223.321 1596.18 227.071C1622.86 230.821 1649.54 246.76 1661.28 246.76H1676.22C1697.56 246.76 1723.18 222.383 1759.47 227.071C1795.75 231.759 1812.83 246.76 1834.17 246.76C1855.52 246.76 1881.13 222.383 1917.42 227.071C1953.71 231.759 1970.78 246.76 1992.13 246.76" stroke="#F4F4F4" stroke-width="2" stroke-linecap="round" stroke-linejoin="round"/>
<path d="M-168 212.07C-153.414 211.758 -116.985 214.695 -87.9557 228.946C-51.669 246.76 -30.3239 212.07 8.09737 212.07C46.5186 212.07 66.7965 231.759 82.8053 231.759C98.8142 231.759 132.966 205.507 166.051 212.07C199.136 218.633 220.481 231.759 241.827 231.759C263.172 231.759 288.786 207.382 325.073 212.07C361.359 216.758 378.435 231.759 399.781 231.759C421.126 231.759 454.211 208.32 480.892 212.07C507.574 215.82 534.255 231.759 545.995 231.759C555.387 231.759 559.869 231.759 560.936 231.759C582.281 231.759 607.896 207.382 644.182 212.07C680.469 216.758 697.545 231.759 718.89 231.759C740.236 231.759 773.32 208.32 800.002 212.07C826.683 215.82 853.365 231.759 865.104 231.759H880.046C901.391 231.759 927.005 207.382 963.292 212.07C999.579 216.758 1016.65 231.759 1038 231.759C1059.35 231.759 1084.96 207.382 1121.25 212.07C1157.53 216.758 1174.61 231.759 1195.95 231.759C1217.3 231.759 1250.38 208.32 1277.07 212.07C1303.75 215.82 1330.43 231.759 1342.17 231.759H1357.11C1378.45 231.759 1404.07 207.382 1440.36 212.07C1476.64 216.758 1493.72 231.759 1515.06 231.759C1536.41 231.759 1569.49 208.32 1596.18 212.07C1622.86 215.82 1649.54 231.759 1661.28 231.759H1676.22C1697.56 231.759 1723.18 207.382 1759.47 212.07C1795.75 216.758 1812.83 231.759 1834.17 231.759C1855.52 231.759 1881.13 207.382 1917.42 212.07C1953.71 216.758 1970.78 231.759 1992.13 231.759" stroke="#F4F4F4" stroke-width="2" stroke-linecap="round" stroke-linejoin="round"/>
<path d="M-168 193.318C-153.414 193.006 -116.985 195.943 -87.9557 210.195C-51.669 228.008 -30.3239 193.318 8.09737 193.318C46.5186 193.318 66.7965 213.007 82.8053 213.007C98.8142 213.007 132.966 186.755 166.051 193.318C199.136 199.881 220.481 213.007 241.827 213.007C263.172 213.007 288.786 188.63 325.073 193.318C361.359 198.006 378.435 213.007 399.781 213.007C421.126 213.007 454.211 189.568 480.892 193.318C507.574 197.069 534.255 213.007 545.995 213.007C555.387 213.007 559.869 213.007 560.936 213.007C582.281 213.007 607.896 188.63 644.182 193.318C680.469 198.006 697.545 213.007 718.89 213.007C740.236 213.007 773.32 189.568 800.002 193.318C826.683 197.069 853.365 213.007 865.104 213.007H880.046C901.391 213.007 927.005 188.63 963.292 193.318C999.579 198.006 1016.65 213.007 1038 213.007C1059.35 213.007 1084.96 188.63 1121.25 193.318C1157.53 198.006 1174.61 213.007 1195.95 213.007C1217.3 213.007 1250.38 189.568 1277.07 193.318C1303.75 197.069 1330.43 213.007 1342.17 213.007H1357.11C1378.45 213.007 1404.07 188.63 1440.36 193.318C1476.64 198.006 1493.72 213.007 1515.06 213.007C1536.41 213.007 1569.49 189.568 1596.18 193.318C1622.86 197.069 1649.54 213.007 1661.28 213.007H1676.22C1697.56 213.007 1723.18 188.63 1759.47 193.318C1795.75 198.006 1812.83 213.007 1834.17 213.007C1855.52 213.007 1881.13 188.63 1917.42 193.318C1953.71 198.006 1970.78 213.007 1992.13 213.007" stroke="#F4F4F4" stroke-width="2" stroke-linecap="round" stroke-linejoin="round"/>
<path d="M-168 178.318C-153.414 178.005 -116.985 180.943 -87.9557 195.194C-51.669 213.008 -30.3239 178.318 8.09737 178.318C46.5186 178.318 66.7965 198.007 82.8053 198.007C98.8142 198.007 132.966 171.755 166.051 178.318C199.136 184.881 220.481 198.007 241.827 198.007C263.172 198.007 288.786 173.63 325.073 178.318C361.359 183.006 378.435 198.007 399.781 198.007C421.126 198.007 454.211 174.567 480.892 178.318C507.574 182.068 534.255 198.007 545.995 198.007C555.387 198.007 559.869 198.007 560.936 198.007C582.281 198.007 607.896 173.63 644.182 178.318C680.469 183.006 697.545 198.007 718.89 198.007C740.236 198.007 773.32 174.567 800.002 178.318C826.683 182.068 853.365 198.007 865.104 198.007H880.046C901.391 198.007 927.005 173.63 963.292 178.318C999.579 183.006 1016.65 198.007 1038 198.007C1059.35 198.007 1084.96 173.63 1121.25 178.318C1157.53 183.006 1174.61 198.007 1195.95 198.007C1217.3 198.007 1250.38 174.567 1277.07 178.318C1303.75 182.068 1330.43 198.007 1342.17 198.007H1357.11C1378.45 198.007 1404.07 173.63 1440.36 178.318C1476.64 183.006 1493.72 198.007 1515.06 198.007C1536.41 198.007 1569.49 174.567 1596.18 178.318C1622.86 182.068 1649.54 198.007 1661.28 198.007H1676.22C1697.56 198.007 1723.18 173.63 1759.47 178.318C1795.75 183.006 1812.83 198.007 1834.17 198.007C1855.52 198.007 1881.13 173.63 1917.42 178.318C1953.71 183.006 1970.78 198.007 1992.13 198.007" stroke="#F4F4F4" stroke-width="2" stroke-linecap="round" stroke-linejoin="round"/>
<path d="M-168 159.566C-153.414 159.253 -116.985 162.191 -87.9557 176.442C-51.669 194.256 -30.3239 159.566 8.09737 159.566C46.5186 159.566 66.7965 179.255 82.8053 179.255C98.8142 179.255 132.966 153.003 166.051 159.566C199.136 166.129 220.481 179.255 241.827 179.255C263.172 179.255 288.786 154.878 325.073 159.566C361.359 164.254 378.435 179.255 399.781 179.255C421.126 179.255 454.211 155.815 480.892 159.566C507.574 163.316 534.255 179.255 545.995 179.255C555.387 179.255 559.869 179.255 560.936 179.255C582.281 179.255 607.896 154.878 644.182 159.566C680.469 164.254 697.545 179.255 718.89 179.255C740.236 179.255 773.32 155.815 800.002 159.566C826.683 163.316 853.365 179.255 865.104 179.255H880.046C901.391 179.255 927.005 154.878 963.292 159.566C999.579 164.254 1016.65 179.255 1038 179.255C1059.35 179.255 1084.96 154.878 1121.25 159.566C1157.53 164.254 1174.61 179.255 1195.95 179.255C1217.3 179.255 1250.38 155.816 1277.07 159.566C1303.75 163.316 1330.43 179.255 1342.17 179.255H1357.11C1378.45 179.255 1404.07 154.878 1440.36 159.566C1476.64 164.254 1493.72 179.255 1515.06 179.255C1536.41 179.255 1569.49 155.815 1596.18 159.566C1622.86 163.316 1649.54 179.255 1661.28 179.255H1676.22C1697.56 179.255 1723.18 154.878 1759.47 159.566C1795.75 164.254 1812.83 179.255 1834.17 179.255C1855.52 179.255 1881.13 154.878 1917.42 159.566C1953.71 164.254 1970.78 179.255 1992.13 179.255" stroke="#F4F4F4" stroke-width="2" stroke-linecap="round" stroke-linejoin="round"/>
<path d="M-168 142.69C-153.414 142.377 -116.985 145.315 -87.9557 159.566C-51.669 177.38 -30.3239 142.69 8.09737 142.69C46.5186 142.69 66.7965 162.379 82.8053 162.379C98.8142 162.379 132.966 136.127 166.051 142.69C199.136 149.253 220.481 162.379 241.827 162.379C263.172 162.379 288.786 138.002 325.073 142.69C361.359 147.378 378.435 162.379 399.781 162.379C421.126 162.379 454.211 138.939 480.892 142.69C507.574 146.44 534.255 162.379 545.995 162.379C555.387 162.379 559.869 162.379 560.936 162.379C582.281 162.379 607.896 138.002 644.182 142.69C680.469 147.378 697.545 162.379 718.89 162.379C740.236 162.379 773.32 138.939 800.002 142.69C826.683 146.44 853.365 162.379 865.104 162.379H880.046C901.391 162.379 927.005 138.002 963.292 142.69C999.579 147.378 1016.65 162.379 1038 162.379C1059.35 162.379 1084.96 138.002 1121.25 142.69C1157.53 147.378 1174.61 162.379 1195.95 162.379C1217.3 162.379 1250.38 138.939 1277.07 142.69C1303.75 146.44 1330.43 162.379 1342.17 162.379H1357.11C1378.45 162.379 1404.07 138.002 1440.36 142.69C1476.64 147.378 1493.72 162.379 1515.06 162.379C1536.41 162.379 1569.49 138.939 1596.18 142.69C1622.86 146.44 1649.54 162.379 1661.28 162.379H1676.22C1697.56 162.379 1723.18 138.002 1759.47 142.69C1795.75 147.378 1812.83 162.379 1834.17 162.379C1855.52 162.379 1881.13 138.002 1917.42 142.69C1953.71 147.378 1970.78 162.379 1992.13 162.379" stroke="#F4F4F4" stroke-width="2" stroke-linecap="round" stroke-linejoin="round"/>
<path d="M-168 123.938C-153.414 123.626 -116.985 126.563 -87.9557 140.814C-51.669 158.628 -30.3239 123.938 8.09737 123.938C46.5186 123.938 66.7965 143.627 82.8053 143.627C98.8142 143.627 132.966 117.375 166.051 123.938C199.136 130.501 220.481 143.627 241.827 143.627C263.172 143.627 288.786 119.25 325.073 123.938C361.359 128.626 378.435 143.627 399.781 143.627C421.126 143.627 454.211 120.188 480.892 123.938C507.574 127.688 534.255 143.627 545.995 143.627C555.387 143.627 559.869 143.627 560.936 143.627C582.281 143.627 607.896 119.25 644.182 123.938C680.469 128.626 697.545 143.627 718.89 143.627C740.236 143.627 773.32 120.188 800.002 123.938C826.683 127.688 853.365 143.627 865.104 143.627H880.046C901.391 143.627 927.005 119.25 963.292 123.938C999.579 128.626 1016.65 143.627 1038 143.627C1059.35 143.627 1084.96 119.25 1121.25 123.938C1157.53 128.626 1174.61 143.627 1195.95 143.627C1217.3 143.627 1250.38 120.188 1277.07 123.938C1303.75 127.688 1330.43 143.627 1342.17 143.627H1357.11C1378.45 143.627 1404.07 119.25 1440.36 123.938C1476.64 128.626 1493.72 143.627 1515.06 143.627C1536.41 143.627 1569.49 120.188 1596.18 123.938C1622.86 127.688 1649.54 143.627 1661.28 143.627H1676.22C1697.56 143.627 1723.18 119.25 1759.47 123.938C1795.75 128.626 1812.83 143.627 1834.17 143.627C1855.52 143.627 1881.13 119.25 1917.42 123.938C1953.71 128.626 1970.78 143.627 1992.13 143.627" stroke="#F4F4F4" stroke-width="2" stroke-linecap="round" stroke-linejoin="round"/>
<path d="M-168 107.062C-153.414 106.749 -116.985 109.687 -87.9557 123.938C-51.669 141.752 -30.3239 107.062 8.09737 107.062C46.5186 107.062 66.7965 126.751 82.8053 126.751C98.8142 126.751 132.966 100.499 166.051 107.062C199.136 113.625 220.481 126.751 241.827 126.751C263.172 126.751 288.786 102.374 325.073 107.062C361.359 111.75 378.435 126.751 399.781 126.751C421.126 126.751 454.211 103.312 480.892 107.062C507.574 110.812 534.255 126.751 545.995 126.751C555.387 126.751 559.869 126.751 560.936 126.751C582.281 126.751 607.896 102.374 644.182 107.062C680.469 111.75 697.545 126.751 718.89 126.751C740.236 126.751 773.32 103.312 800.002 107.062C826.683 110.812 853.365 126.751 865.104 126.751H880.046C901.391 126.751 927.005 102.374 963.292 107.062C999.579 111.75 1016.65 126.751 1038 126.751C1059.35 126.751 1084.96 102.374 1121.25 107.062C1157.53 111.75 1174.61 126.751 1195.95 126.751C1217.3 126.751 1250.38 103.312 1277.07 107.062C1303.75 110.812 1330.43 126.751 1342.17 126.751H1357.11C1378.45 126.751 1404.07 102.374 1440.36 107.062C1476.64 111.75 1493.72 126.751 1515.06 126.751C1536.41 126.751 1569.49 103.312 1596.18 107.062C1622.86 110.812 1649.54 126.751 1661.28 126.751H1676.22C1697.56 126.751 1723.18 102.374 1759.47 107.062C1795.75 111.75 1812.83 126.751 1834.17 126.751C1855.52 126.751 1881.13 102.374 1917.42 107.062C1953.71 111.75 1970.78 126.751 1992.13 126.751" stroke="#F4F4F4" stroke-width="2" stroke-linecap="round" stroke-linejoin="round"/>
<path d="M-168 89.4275C-153.414 89.115 -116.985 92.0527 -87.9557 106.304C-51.669 124.118 -30.3239 89.4275 8.09737 89.4275C46.5186 89.4275 66.7965 109.117 82.8053 109.117C98.8142 109.117 132.966 82.8644 166.051 89.4275C199.136 95.9905 220.481 109.117 241.827 109.117C263.172 109.117 288.786 84.7395 325.073 89.4275C361.359 94.1154 378.435 109.117 399.781 109.117C421.126 109.117 454.211 85.6771 480.892 89.4275C507.574 93.1778 534.255 109.117 545.995 109.117C555.387 109.117 559.869 109.117 560.936 109.117C582.281 109.117 607.896 84.7395 644.182 89.4275C680.469 94.1154 697.545 109.117 718.89 109.117C740.236 109.117 773.32 85.6771 800.002 89.4275C826.683 93.1778 853.365 109.117 865.104 109.117H880.046C901.391 109.117 927.005 84.7395 963.292 89.4275C999.579 94.1154 1016.65 109.117 1038 109.117C1059.35 109.117 1084.96 84.7395 1121.25 89.4275C1157.53 94.1154 1174.61 109.117 1195.95 109.117C1217.3 109.117 1250.38 85.6771 1277.07 89.4275C1303.75 93.1778 1330.43 109.117 1342.17 109.117H1357.11C1378.45 109.117 1404.07 84.7395 1440.36 89.4275C1476.64 94.1154 1493.72 109.117 1515.06 109.117C1536.41 109.117 1569.49 85.6771 1596.18 89.4274C1622.86 93.1778 1649.54 109.117 1661.28 109.117H1676.22C1697.56 109.117 1723.18 84.7395 1759.47 89.4274C1795.75 94.1154 1812.83 109.117 1834.17 109.117C1855.52 109.117 1881.13 84.7395 1917.42 89.4275C1953.71 94.1154 1970.78 109.117 1992.13 109.117" stroke="#F4F4F4" stroke-width="2" stroke-linecap="round" stroke-linejoin="round"/>
<path d="M-168 73.3089C-153.414 72.9964 -116.985 75.9342 -87.9557 90.1853C-51.669 107.999 -30.3239 73.3089 8.09737 73.3089C46.5186 73.3089 66.7965 92.998 82.8053 92.998C98.8142 92.998 132.966 66.7459 166.051 73.3089C199.136 79.872 220.481 92.998 241.827 92.998C263.172 92.998 288.786 68.621 325.073 73.3089C361.359 77.9969 378.435 92.998 399.781 92.998C421.126 92.998 454.211 69.5586 480.892 73.3089C507.574 77.0593 534.255 92.998 545.995 92.998C555.387 92.998 559.869 92.998 560.936 92.998C582.281 92.998 607.896 68.621 644.182 73.3089C680.469 77.9969 697.545 92.998 718.89 92.998C740.236 92.998 773.32 69.5586 800.002 73.3089C826.683 77.0593 853.365 92.998 865.104 92.998H880.046C901.391 92.998 927.005 68.621 963.292 73.3089C999.579 77.9969 1016.65 92.998 1038 92.998C1059.35 92.998 1084.96 68.621 1121.25 73.3089C1157.53 77.9969 1174.61 92.998 1195.95 92.998C1217.3 92.998 1250.38 69.5586 1277.07 73.3089C1303.75 77.0593 1330.43 92.998 1342.17 92.998H1357.11C1378.45 92.998 1404.07 68.621 1440.36 73.3089C1476.64 77.9969 1493.72 92.998 1515.06 92.998C1536.41 92.998 1569.49 69.5586 1596.18 73.3089C1622.86 77.0593 1649.54 92.998 1661.28 92.998H1676.22C1697.56 92.998 1723.18 68.621 1759.47 73.3089C1795.75 77.9969 1812.83 92.998 1834.17 92.998C1855.52 92.998 1881.13 68.621 1917.42 73.3089C1953.71 77.9969 1970.78 92.998 1992.13 92.998" stroke="#F4F4F4" stroke-width="2" stroke-linecap="round" stroke-linejoin="round"/>
<path d="M-168 54.5573C-153.414 54.2448 -116.985 57.1825 -87.9557 71.4337C-51.669 89.2476 -30.3239 54.5573 8.09737 54.5573C46.5186 54.5573 66.7965 74.2464 82.8053 74.2464C98.8142 74.2464 132.966 47.9943 166.051 54.5573C199.136 61.1204 220.481 74.2464 241.827 74.2464C263.172 74.2464 288.786 49.8694 325.073 54.5573C361.359 59.2453 378.435 74.2464 399.781 74.2464C421.126 74.2464 454.211 50.807 480.892 54.5573C507.574 58.3077 534.255 74.2464 545.995 74.2464C555.387 74.2464 559.869 74.2464 560.936 74.2464C582.281 74.2464 607.896 49.8694 644.182 54.5573C680.469 59.2453 697.545 74.2464 718.89 74.2464C740.236 74.2464 773.32 50.807 800.002 54.5573C826.683 58.3077 853.365 74.2464 865.104 74.2464H880.046C901.391 74.2464 927.005 49.8694 963.292 54.5573C999.579 59.2453 1016.65 74.2464 1038 74.2464C1059.35 74.2464 1084.96 49.8694 1121.25 54.5573C1157.53 59.2453 1174.61 74.2464 1195.95 74.2464C1217.3 74.2464 1250.38 50.807 1277.07 54.5573C1303.75 58.3077 1330.43 74.2464 1342.17 74.2464H1357.11C1378.45 74.2464 1404.07 49.8694 1440.36 54.5573C1476.64 59.2453 1493.72 74.2464 1515.06 74.2464C1536.41 74.2464 1569.49 50.807 1596.18 54.5573C1622.86 58.3077 1649.54 74.2464 1661.28 74.2464H1676.22C1697.56 74.2464 1723.18 49.8694 1759.47 54.5573C1795.75 59.2453 1812.83 74.2464 1834.17 74.2464C1855.52 74.2464 1881.13 49.8694 1917.42 54.5573C1953.71 59.2453 1970.78 74.2464 1992.13 74.2464" stroke="#F4F4F4" stroke-width="2" stroke-linecap="round" stroke-linejoin="round"/>
<path d="M-168 37.6809C-153.414 37.3683 -116.985 40.3061 -87.9557 54.5572C-51.669 72.3711 -30.3239 37.6809 8.09737 37.6809C46.5186 37.6809 66.7965 57.3699 82.8053 57.3699C98.8142 57.3699 132.966 31.1178 166.051 37.6809C199.136 44.2439 220.481 57.3699 241.827 57.3699C263.172 57.3699 288.786 32.9929 325.073 37.6809C361.359 42.3688 378.435 57.3699 399.781 57.3699C421.126 57.3699 454.211 33.9305 480.892 37.6809C507.574 41.4312 534.255 57.3699 545.995 57.3699C555.387 57.3699 559.869 57.3699 560.936 57.3699C582.281 57.3699 607.896 32.9929 644.182 37.6809C680.469 42.3688 697.545 57.3699 718.89 57.3699C740.236 57.3699 773.32 33.9305 800.002 37.6809C826.683 41.4312 853.365 57.3699 865.104 57.3699H880.046C901.391 57.3699 927.005 32.9929 963.292 37.6809C999.579 42.3688 1016.65 57.3699 1038 57.3699C1059.35 57.3699 1084.96 32.9929 1121.25 37.6809C1157.53 42.3688 1174.61 57.3699 1195.95 57.3699C1217.3 57.3699 1250.38 33.9305 1277.07 37.6809C1303.75 41.4312 1330.43 57.3699 1342.17 57.3699H1357.11C1378.45 57.3699 1404.07 32.9929 1440.36 37.6809C1476.64 42.3688 1493.72 57.3699 1515.06 57.3699C1536.41 57.3699 1569.49 33.9305 1596.18 37.6809C1622.86 41.4312 1649.54 57.3699 1661.28 57.3699H1676.22C1697.56 57.3699 1723.18 32.9929 1759.47 37.6809C1795.75 42.3688 1812.83 57.3699 1834.17 57.3699C1855.52 57.3699 1881.13 32.9929 1917.42 37.6809C1953.71 42.3688 1970.78 57.3699 1992.13 57.3699" stroke="#F4F4F4" stroke-width="2" stroke-linecap="round" stroke-linejoin="round"/>
<path d="M-168 20.805C-153.414 20.4925 -116.985 23.4302 -87.9557 37.6813C-51.669 55.4952 -30.3239 20.805 8.09737 20.805C46.5186 20.805 66.7965 40.4941 82.8053 40.4941C98.8142 40.4941 132.966 14.2419 166.051 20.805C199.136 27.368 220.481 40.4941 241.827 40.4941C263.172 40.4941 288.786 16.117 325.073 20.805C361.359 25.4929 378.435 40.4941 399.781 40.4941C421.126 40.4941 454.211 17.0546 480.892 20.805C507.574 24.5553 534.255 40.4941 545.995 40.4941C555.387 40.4941 559.869 40.4941 560.936 40.4941C582.281 40.4941 607.896 16.117 644.182 20.805C680.469 25.4929 697.545 40.4941 718.89 40.4941C740.236 40.4941 773.32 17.0546 800.002 20.805C826.683 24.5553 853.365 40.4941 865.104 40.4941H880.046C901.391 40.4941 927.005 16.117 963.292 20.805C999.579 25.4929 1016.65 40.4941 1038 40.4941C1059.35 40.4941 1084.96 16.1171 1121.25 20.805C1157.53 25.4929 1174.61 40.494 1195.95 40.494C1217.3 40.494 1250.38 17.0546 1277.07 20.805C1303.75 24.5554 1330.43 40.494 1342.17 40.494H1357.11C1378.45 40.494 1404.07 16.1171 1440.36 20.805C1476.64 25.4929 1493.72 40.494 1515.06 40.494C1536.41 40.494 1569.49 17.0546 1596.18 20.805C1622.86 24.5553 1649.54 40.494 1661.28 40.494H1676.22C1697.56 40.494 1723.18 16.117 1759.47 20.805C1795.75 25.4929 1812.83 40.494 1834.17 40.494C1855.52 40.494 1881.13 16.1171 1917.42 20.805C1953.71 25.4929 1970.78 40.4941 1992.13 40.4941" stroke="#F4F4F4" stroke-width="2" stroke-linecap="round" stroke-linejoin="round"/>
<path d="M-168 2.05333C-153.414 1.74081 -116.985 4.67854 -87.9557 18.9297C-51.669 36.7436 -30.3239 2.05333 8.09737 2.05333C46.5186 2.05333 66.7965 21.7424 82.8053 21.7424C98.8142 21.7424 132.966 -4.50972 166.051 2.05333C199.136 8.61638 220.481 21.7424 241.827 21.7424C263.172 21.7424 288.786 -2.6346 325.073 2.05333C361.359 6.74127 378.435 21.7424 399.781 21.7424C421.126 21.7424 454.211 -1.69703 480.892 2.05333C507.574 5.80369 534.255 21.7424 545.995 21.7424C555.387 21.7424 559.869 21.7424 560.936 21.7424C582.281 21.7424 607.896 -2.63459 644.182 2.05334C680.469 6.74128 697.545 21.7424 718.89 21.7424C740.236 21.7424 773.32 -1.69702 800.002 2.05334C826.683 5.8037 853.365 21.7424 865.104 21.7424H880.046C901.391 21.7424 927.005 -2.63459 963.292 2.05334C999.579 6.74128 1016.65 21.7424 1038 21.7424" stroke="#F4F4F4" stroke-width="2" stroke-linecap="round" stroke-linejoin="round"/>
</svg>
