<svg width="58" height="38" viewBox="0 0 58 38" fill="none" xmlns="http://www.w3.org/2000/svg">
<ellipse cx="12.8805" cy="25.2282" rx="12.8805" ry="12.7716" fill="white"/>
<path d="M14.0726 6.10352e-05C9.83288 5.89719 1.28267 18.1819 1 20.1437C2.35437 22.1289 5.45177 26.1693 7.00635 26.4496C8.56093 26.7299 17.4291 23.9973 21.6689 22.596C21.3155 20.7276 20.2556 16.5004 18.8424 14.5386C17.4291 12.5768 22.7288 4.02881 25.5553 6.10352e-05H14.0726Z" fill="white"/>
<ellipse cx="45.0756" cy="25.2282" rx="12.8805" ry="12.7716" fill="white"/>
<path d="M46.5177 0C42.2779 5.89713 33.7277 18.1818 33.4451 20.1437C34.7994 22.1288 37.8968 26.1693 39.4514 26.4495C41.006 26.7298 49.8742 23.9973 54.1139 22.596C53.7606 20.7276 52.7007 16.5003 51.2874 14.5385C49.8742 12.5767 55.1739 4.02875 58.0004 0H46.5177Z" fill="white"/>
</svg>
