<svg width="16" height="17" viewBox="0 0 16 17" fill="none" xmlns="http://www.w3.org/2000/svg">
<g clip-path="url(#clip0)">
<path d="M7.80023 12.92H8.75823C8.75823 12.92 9.0469 12.8887 9.19423 12.7307C9.33423 12.5834 9.33423 12.3107 9.33423 12.3107C9.33423 12.3107 9.31357 11.026 9.91357 10.8374C10.5049 10.65 11.2549 12.0774 12.0542 12.626C12.6649 13.0454 13.1242 12.9554 13.1242 12.9554L15.2649 12.926C15.2649 12.926 16.3862 12.856 15.8562 11.9754C15.8156 11.9054 15.5556 11.3254 14.2756 10.1354C12.9342 8.8947 13.1142 9.0947 14.7262 6.94404C15.7056 5.63404 16.1062 4.83337 15.9762 4.49337C15.8656 4.17337 15.1362 4.2527 15.1362 4.2527L12.7349 4.27337C12.7349 4.27337 12.5549 4.2527 12.4249 4.33337C12.2949 4.4127 12.2156 4.59404 12.2156 4.59404C12.2156 4.59404 11.8342 5.61337 11.3249 6.47404C10.2429 8.29337 9.8129 8.39337 9.6429 8.27337C9.24023 8.0127 9.34357 7.22004 9.34357 6.65204C9.34357 4.89137 9.6129 4.15204 8.8229 3.96204C8.5629 3.90137 8.3689 3.86204 7.69957 3.85137C6.83957 3.84204 6.11423 3.85804 5.7029 4.0587C5.4329 4.19404 5.2229 4.49337 5.34357 4.5087C5.50357 4.5287 5.8629 4.60604 6.0529 4.8667C6.3029 5.20404 6.29223 5.95737 6.29223 5.95737C6.29223 5.95737 6.4329 8.0347 5.9629 8.2927C5.6329 8.46737 5.1929 8.10604 4.2329 6.45537C3.7429 5.61537 3.37223 4.67537 3.37223 4.67537C3.37223 4.67537 3.30223 4.5047 3.1729 4.4047C3.02157 4.2947 2.80157 4.2547 2.80157 4.2547L0.511567 4.2747C0.511567 4.2747 0.171567 4.28537 0.0522336 4.4347C-0.0584331 4.5647 0.0415669 4.8447 0.0415669 4.8447C0.0415669 4.8447 1.83223 9.03604 3.8629 11.1467C5.7229 13.0814 7.83357 12.9567 7.83357 12.9567L7.80023 12.92Z" fill="white"/>
</g>
<defs>
<clipPath id="clip0">
<rect width="16" height="16" fill="white" transform="translate(0 0.40625)"/>
</clipPath>
</defs>
</svg>
