<svg width="16" height="16" viewBox="0 0 16 16" fill="none" xmlns="http://www.w3.org/2000/svg">
<path d="M15.3764 3.31414C14.7988 2.64345 13.7325 2.36987 11.6961 2.36987H4.30379C2.22075 2.36987 1.13636 2.6611 0.560981 3.37515C0 4.07136 0 5.09716 0 6.51689V9.2229C0 11.9734 0.6656 13.3699 4.30379 13.3699H11.6961C13.4621 13.3699 14.4407 13.1285 15.0738 12.5366C15.723 11.9296 16 10.9386 16 9.2229V6.51689C16 5.01966 15.9566 3.98781 15.3764 3.31414ZM10.2721 8.24349L6.91525 9.95732C6.84021 9.99564 6.75814 10.0147 6.67618 10.0147C6.58338 10.0147 6.49079 9.99025 6.40877 9.94174C6.25435 9.85033 6.16005 9.68682 6.16005 9.51045V6.09377C6.16005 5.9177 6.25409 5.75434 6.40821 5.66287C6.56237 5.57141 6.75412 5.56516 6.91406 5.64634L10.2709 7.34913C10.4417 7.43575 10.5489 7.60799 10.5492 7.79591C10.5494 7.98397 10.4426 8.15646 10.2721 8.24349Z" fill="white"/>
</svg>
